#format: frame checksums
#version: 1
#hash: MD5
#tb 0: 1001/30000
#stream#, dts,        pts, duration,     size, hash
0,          0,          0,        1,   152064, 043ce065a309514e1e8ebdcbb3c2458b
0,          1,          1,        1,   152064, 8579c9cffd95b11db86158e518b2e34a
0,          2,          2,        1,   152064, ebbba105e499604f5e69b8aa48fe86f4
0,          3,          3,        1,   152064, b08526fab7e106021f9fb9b1e2d4b725
0,          4,          4,        1,   152064, 92afa561d06f41ccc6d2e2bcc3ab2ee4
0,          5,          5,        1,   152064, 50de8ec2db66c783289a3982dd1c4f97
0,          6,          6,        1,   152064, c2ab55d114b8822adef06ccb093b5ac7
0,          7,          7,        1,   152064, e3ee4edbe8a1f0b5486bbd8a52e7cbcb
0,          8,          8,        1,   152064, fc33fd50566cd64e5b13911ee06c6e24
0,          9,          9,        1,   152064, 05297e847f983a19fe2ba5e05932a110
0,         10,         10,        1,   152064, d21db9adb27be89ab3b7f75d89175e24
0,         11,         11,        1,   152064, 29bb87bdebd078f8dd953a70def6c4dc
0,         12,         12,        1,   152064, c57f7bc772f6143a22edaf926f92de5f
0,         13,         13,        1,   152064, 39f2fc755d4bc2cc5ec077035382be22
0,         14,         14,        1,   152064, 000ec9c75374f6d74a5e61189e6fd782
0,         15,         15,        1,   152064, 3027187c9bdb2a755d14513b7e597bb1
0,         16,         16,        1,   152064, 2b3129659df2b3aa10b9398c50301e00
0,         17,         17,        1,   152064, e23bcacf1cafca9a7959508b33e63907
0,         18,         18,        1,   152064, fe0382dd155284998a0d7eb7effb5adf
0,         19,         19,        1,   152064, e0a487860dd0df3d865971b483fab3e9
0,         20,         20,        1,   152064, 7ca757c55b0ea4779cdfa3a535f8f234
0,         21,         21,        1,   152064, 1a276d27f4ce0e2720e25dbed2e524ae
0,         22,         22,        1,   152064, dd39bc322c8bdce196a9c2129bcb5d6e
0,         23,         23,        1,   152064, 63e295427977d645462e0fb3277ccb53
0,         24,         24,        1,   152064, e9a35655c71da22fb0c7865e0bbc91b8
0,         25,         25,        1,   152064, 5903bcbccabb3366382b37bf08119dde
0,         26,         26,        1,   152064, 3b6ce09353b07b193914a71ca2334d8c
0,         27,         27,        1,   152064, cb3731eb5dbe338125c0a7d6b4bf2868
0,         28,         28,        1,   152064, 0837c62b54912ed06f7f755894ad3f6b
0,         29,         29,        1,   152064, 7f215dc14d8e280fc18ad3fb3122fa58
0,         30,         30,        1,   152064, 6dafaf5adc45fead74f0153e3764b17d
0,         31,         31,        1,   152064, e19c8274ee6377dbf005f6516a81c413
0,         32,         32,        1,   152064, 358cbf29bd136d2f9dcb60ab82a2e9e5
0,         33,         33,        1,   152064, 2276d4670ff35c3a76c27c3a5810eea3
0,         34,         34,        1,   152064, 636dd3390d4011c377915d7d3acc9ee1
0,         35,         35,        1,   152064, 5e7a1ed17d80168567d61987425f4e60
0,         36,         36,        1,   152064, c10a4830c5f268888789fccd16c0cc0e
0,         37,         37,        1,   152064, 298ef49418d730a031ff23311031c969
0,         38,         38,        1,   152064, 4dd2249e13cda0f99fa46786d345c96a
0,         39,         39,        1,   152064, 24232dbc6e35a069c60422c4c23dfa51
0,         40,         40,        1,   152064, ae8751c5ac168d6aa4499fe69f018ae2
0,         41,         41,        1,   152064, 6a3a7e60a569e7415f2c3a1453e4dc38
0,         42,         42,        1,   152064, 5475af1c118d1b7cc0a357bc434241a8
0,         43,         43,        1,   152064, c6b5ab39e630e66e8f09698fd1dfa160
0,         44,         44,        1,   152064, f1c0310adf115456167e3fa790e43dde
0,         45,         45,        1,   152064, 3028296307b47d10156fc9657693edc3
0,         46,         46,        1,   152064, 0903dabcb8ac707b423b222ac5bb4898
0,         47,         47,        1,   152064, 713cf71b994e2c85ed577062814c5732
0,         48,         48,        1,   152064, 674f56b9cccf5c9d1f88f68c3996a671
0,         49,         49,        1,   152064, f63732c2ff823960d8b62d866dfb5e6a
